<mxfile host="app.diagrams.net" agent="Mozilla/5.0 (Windows NT 10.0; Win64; x64) AppleWebKit/537.36 (KHTML, like Gecko) Chrome/130.0.0.0 Safari/537.36" version="24.8.4">
  <diagram name="Page-1" id="fACdMcYVXWNAEVKJV7im">
    <mxGraphModel dx="1858" dy="1726" grid="1" gridSize="10" guides="1" tooltips="1" connect="1" arrows="1" fold="1" page="1" pageScale="1" pageWidth="850" pageHeight="1100" math="0" shadow="0">
      <root>
        <mxCell id="0" />
        <mxCell id="1" parent="0" />
        <mxCell id="ti-f4M6J5UE3nzPMXCEx-1" value="&lt;font color=&quot;#cc99ff&quot;&gt;ECS-INSTANA&lt;/font&gt;" style="points=[[0,0],[0.25,0],[0.5,0],[0.75,0],[1,0],[1,0.25],[1,0.5],[1,0.75],[1,1],[0.75,1],[0.5,1],[0.25,1],[0,1],[0,0.75],[0,0.5],[0,0.25]];outlineConnect=0;gradientColor=none;html=1;whiteSpace=wrap;fontSize=12;fontStyle=0;container=1;pointerEvents=0;collapsible=0;recursiveResize=0;shape=mxgraph.aws4.group;grIcon=mxgraph.aws4.group_vpc2;strokeColor=#8C4FFF;fillColor=none;verticalAlign=top;align=left;spacingLeft=30;fontColor=#AAB7B8;dashed=0;" parent="1" vertex="1">
          <mxGeometry x="40" y="310" width="730" height="770" as="geometry" />
        </mxCell>
        <mxCell id="ti-f4M6J5UE3nzPMXCEx-2" value="AZ-1" style="fillColor=#dae8fc;strokeColor=#6c8ebf;dashed=1;verticalAlign=top;fontStyle=0;whiteSpace=wrap;html=1;" parent="ti-f4M6J5UE3nzPMXCEx-1" vertex="1">
          <mxGeometry x="60" y="110" width="200" height="600" as="geometry" />
        </mxCell>
        <mxCell id="ti-f4M6J5UE3nzPMXCEx-3" value="AZ-2" style="fillColor=#dae8fc;strokeColor=#6c8ebf;dashed=1;verticalAlign=top;fontStyle=0;whiteSpace=wrap;html=1;" parent="ti-f4M6J5UE3nzPMXCEx-1" vertex="1">
          <mxGeometry x="450" y="110" width="180" height="600" as="geometry" />
        </mxCell>
        <mxCell id="ti-f4M6J5UE3nzPMXCEx-4" value="Public subnet" style="points=[[0,0],[0.25,0],[0.5,0],[0.75,0],[1,0],[1,0.25],[1,0.5],[1,0.75],[1,1],[0.75,1],[0.5,1],[0.25,1],[0,1],[0,0.75],[0,0.5],[0,0.25]];outlineConnect=0;gradientColor=none;html=1;whiteSpace=wrap;fontSize=12;fontStyle=0;container=1;pointerEvents=0;collapsible=0;recursiveResize=0;shape=mxgraph.aws4.group;grIcon=mxgraph.aws4.group_security_group;grStroke=0;strokeColor=#7AA116;fillColor=#F2F6E8;verticalAlign=top;align=left;spacingLeft=30;fontColor=#248814;dashed=0;" parent="ti-f4M6J5UE3nzPMXCEx-1" vertex="1">
          <mxGeometry x="100" y="190" width="510" height="160" as="geometry" />
        </mxCell>
        <mxCell id="ti-f4M6J5UE3nzPMXCEx-5" value="VPN" style="sketch=0;points=[[0,0,0],[0.25,0,0],[0.5,0,0],[0.75,0,0],[1,0,0],[0,1,0],[0.25,1,0],[0.5,1,0],[0.75,1,0],[1,1,0],[0,0.25,0],[0,0.5,0],[0,0.75,0],[1,0.25,0],[1,0.5,0],[1,0.75,0]];outlineConnect=0;fontColor=#232F3E;fillColor=#ED7100;strokeColor=#ffffff;dashed=0;verticalLabelPosition=bottom;verticalAlign=top;align=center;html=1;fontSize=12;fontStyle=0;aspect=fixed;shape=mxgraph.aws4.resourceIcon;resIcon=mxgraph.aws4.ec2;" parent="ti-f4M6J5UE3nzPMXCEx-4" vertex="1">
          <mxGeometry x="256" y="50" width="59" height="59" as="geometry" />
        </mxCell>
        <mxCell id="ti-f4M6J5UE3nzPMXCEx-6" value="" style="sketch=0;aspect=fixed;pointerEvents=1;shadow=0;dashed=0;html=1;strokeColor=none;labelPosition=center;verticalLabelPosition=bottom;verticalAlign=top;align=center;fillColor=#00188D;shape=mxgraph.mscae.enterprise.lock" parent="ti-f4M6J5UE3nzPMXCEx-4" vertex="1">
          <mxGeometry x="256" y="50" width="15.6" height="20" as="geometry" />
        </mxCell>
        <mxCell id="ti-f4M6J5UE3nzPMXCEx-7" value="Bastion" style="sketch=0;points=[[0,0,0],[0.25,0,0],[0.5,0,0],[0.75,0,0],[1,0,0],[0,1,0],[0.25,1,0],[0.5,1,0],[0.75,1,0],[1,1,0],[0,0.25,0],[0,0.5,0],[0,0.75,0],[1,0.25,0],[1,0.5,0],[1,0.75,0]];outlineConnect=0;fontColor=#232F3E;fillColor=#ED7100;strokeColor=#ffffff;dashed=0;verticalLabelPosition=bottom;verticalAlign=top;align=center;html=1;fontSize=12;fontStyle=0;aspect=fixed;shape=mxgraph.aws4.resourceIcon;resIcon=mxgraph.aws4.ec2;" parent="ti-f4M6J5UE3nzPMXCEx-4" vertex="1">
          <mxGeometry x="150" y="50" width="59" height="59" as="geometry" />
        </mxCell>
        <mxCell id="ti-f4M6J5UE3nzPMXCEx-8" value="" style="sketch=0;outlineConnect=0;fontColor=#232F3E;gradientColor=none;fillColor=#DD344C;strokeColor=none;dashed=0;verticalLabelPosition=bottom;verticalAlign=top;align=center;html=1;fontSize=12;fontStyle=0;aspect=fixed;pointerEvents=1;shape=mxgraph.aws4.role;" parent="ti-f4M6J5UE3nzPMXCEx-4" vertex="1">
          <mxGeometry x="160" y="30" width="35.46" height="20" as="geometry" />
        </mxCell>
        <mxCell id="ti-f4M6J5UE3nzPMXCEx-9" value="" style="sketch=0;aspect=fixed;pointerEvents=1;shadow=0;dashed=0;html=1;strokeColor=none;labelPosition=center;verticalLabelPosition=bottom;verticalAlign=top;align=center;fillColor=#00188D;shape=mxgraph.mscae.enterprise.lock" parent="ti-f4M6J5UE3nzPMXCEx-4" vertex="1">
          <mxGeometry x="150" y="50" width="15.6" height="20" as="geometry" />
        </mxCell>
        <mxCell id="ti-f4M6J5UE3nzPMXCEx-10" value="" style="sketch=0;outlineConnect=0;fontColor=#232F3E;gradientColor=none;fillColor=#8C4FFF;strokeColor=none;dashed=0;verticalLabelPosition=bottom;verticalAlign=top;align=center;html=1;fontSize=12;fontStyle=0;aspect=fixed;pointerEvents=1;shape=mxgraph.aws4.nat_gateway;" parent="ti-f4M6J5UE3nzPMXCEx-4" vertex="1">
          <mxGeometry x="40" y="50" width="60" height="60" as="geometry" />
        </mxCell>
        <mxCell id="ti-f4M6J5UE3nzPMXCEx-11" value="Private subnet" style="points=[[0,0],[0.25,0],[0.5,0],[0.75,0],[1,0],[1,0.25],[1,0.5],[1,0.75],[1,1],[0.75,1],[0.5,1],[0.25,1],[0,1],[0,0.75],[0,0.5],[0,0.25]];outlineConnect=0;html=1;whiteSpace=wrap;fontSize=12;fontStyle=0;container=1;pointerEvents=0;collapsible=0;recursiveResize=0;shape=mxgraph.aws4.group;grIcon=mxgraph.aws4.group_security_group;grStroke=0;strokeColor=#d6b656;fillColor=#fff2cc;verticalAlign=top;align=left;spacingLeft=30;dashed=0;" parent="ti-f4M6J5UE3nzPMXCEx-1" vertex="1">
          <mxGeometry x="100" y="410" width="510" height="150" as="geometry" />
        </mxCell>
        <mxCell id="ti-f4M6J5UE3nzPMXCEx-12" value="&#xa;&lt;span style=&quot;color: rgb(0, 0, 0); font-family: Helvetica; font-size: 12px; font-style: normal; font-variant-ligatures: normal; font-variant-caps: normal; font-weight: 400; letter-spacing: normal; orphans: 2; text-align: center; text-indent: 0px; text-transform: none; widows: 2; word-spacing: 0px; -webkit-text-stroke-width: 0px; white-space: nowrap; background-color: rgb(251, 251, 251); text-decoration-thickness: initial; text-decoration-style: initial; text-decoration-color: initial; display: inline !important; float: none;&quot;&gt;instana-ns&lt;/span&gt;&#xa;&#xa;" style="rounded=0;whiteSpace=wrap;html=1;" parent="ti-f4M6J5UE3nzPMXCEx-11" vertex="1">
          <mxGeometry x="30" y="29.25" width="440" height="110.5" as="geometry" />
        </mxCell>
        <mxCell id="ti-f4M6J5UE3nzPMXCEx-13" value="" style="rounded=1;whiteSpace=wrap;html=1;" parent="ti-f4M6J5UE3nzPMXCEx-11" vertex="1">
          <mxGeometry x="219" y="51.75" width="230" height="60" as="geometry" />
        </mxCell>
        <mxCell id="ti-f4M6J5UE3nzPMXCEx-14" value="" style="sketch=0;outlineConnect=0;fontColor=#232F3E;gradientColor=none;fillColor=#ED7100;strokeColor=none;dashed=0;verticalLabelPosition=bottom;verticalAlign=top;align=center;html=1;fontSize=12;fontStyle=0;aspect=fixed;pointerEvents=1;shape=mxgraph.aws4.container_1;" parent="ti-f4M6J5UE3nzPMXCEx-11" vertex="1">
          <mxGeometry x="244.6" y="69.25" width="48" height="31" as="geometry" />
        </mxCell>
        <mxCell id="ti-f4M6J5UE3nzPMXCEx-15" value="" style="sketch=0;outlineConnect=0;fontColor=#232F3E;gradientColor=none;fillColor=#ED7100;strokeColor=none;dashed=0;verticalLabelPosition=bottom;verticalAlign=top;align=center;html=1;fontSize=12;fontStyle=0;aspect=fixed;pointerEvents=1;shape=mxgraph.aws4.container_1;" parent="ti-f4M6J5UE3nzPMXCEx-11" vertex="1">
          <mxGeometry x="310" y="69.25" width="48" height="31" as="geometry" />
        </mxCell>
        <mxCell id="ti-f4M6J5UE3nzPMXCEx-16" value="" style="sketch=0;outlineConnect=0;fontColor=#232F3E;gradientColor=none;fillColor=#ED7100;strokeColor=none;dashed=0;verticalLabelPosition=bottom;verticalAlign=top;align=center;html=1;fontSize=12;fontStyle=0;aspect=fixed;pointerEvents=1;shape=mxgraph.aws4.container_1;" parent="ti-f4M6J5UE3nzPMXCEx-11" vertex="1">
          <mxGeometry x="380" y="69" width="48" height="31" as="geometry" />
        </mxCell>
        <mxCell id="ti-f4M6J5UE3nzPMXCEx-17" value="" style="sketch=0;aspect=fixed;pointerEvents=1;shadow=0;dashed=0;html=1;strokeColor=none;labelPosition=center;verticalLabelPosition=bottom;verticalAlign=top;align=center;fillColor=#00188D;shape=mxgraph.mscae.enterprise.lock" parent="ti-f4M6J5UE3nzPMXCEx-11" vertex="1">
          <mxGeometry x="277" y="74.5" width="15.6" height="20" as="geometry" />
        </mxCell>
        <mxCell id="ti-f4M6J5UE3nzPMXCEx-18" value="" style="sketch=0;aspect=fixed;pointerEvents=1;shadow=0;dashed=0;html=1;strokeColor=none;labelPosition=center;verticalLabelPosition=bottom;verticalAlign=top;align=center;fillColor=#00188D;shape=mxgraph.mscae.enterprise.lock" parent="ti-f4M6J5UE3nzPMXCEx-11" vertex="1">
          <mxGeometry x="342.4" y="74.5" width="15.6" height="20" as="geometry" />
        </mxCell>
        <mxCell id="ti-f4M6J5UE3nzPMXCEx-19" value="" style="sketch=0;aspect=fixed;pointerEvents=1;shadow=0;dashed=0;html=1;strokeColor=none;labelPosition=center;verticalLabelPosition=bottom;verticalAlign=top;align=center;fillColor=#00188D;shape=mxgraph.mscae.enterprise.lock" parent="ti-f4M6J5UE3nzPMXCEx-11" vertex="1">
          <mxGeometry x="412.4" y="74.5" width="15.6" height="20" as="geometry" />
        </mxCell>
        <mxCell id="ti-f4M6J5UE3nzPMXCEx-20" value="" style="edgeStyle=orthogonalEdgeStyle;rounded=0;orthogonalLoop=1;jettySize=auto;html=1;flowAnimation=1;fillColor=#ffe6cc;strokeColor=#d79b00;" parent="ti-f4M6J5UE3nzPMXCEx-11" source="ti-f4M6J5UE3nzPMXCEx-23" target="ti-f4M6J5UE3nzPMXCEx-24" edge="1">
          <mxGeometry relative="1" as="geometry" />
        </mxCell>
        <mxCell id="ti-f4M6J5UE3nzPMXCEx-21" value="" style="edgeStyle=orthogonalEdgeStyle;rounded=0;orthogonalLoop=1;jettySize=auto;html=1;flowAnimation=1;fillColor=#ffe6cc;strokeColor=#d79b00;" parent="ti-f4M6J5UE3nzPMXCEx-11" source="ti-f4M6J5UE3nzPMXCEx-23" target="ti-f4M6J5UE3nzPMXCEx-26" edge="1">
          <mxGeometry relative="1" as="geometry" />
        </mxCell>
        <mxCell id="ti-f4M6J5UE3nzPMXCEx-22" style="edgeStyle=orthogonalEdgeStyle;rounded=0;orthogonalLoop=1;jettySize=auto;html=1;exitX=0.75;exitY=0;exitDx=0;exitDy=0;exitPerimeter=0;" parent="ti-f4M6J5UE3nzPMXCEx-11" source="ti-f4M6J5UE3nzPMXCEx-23" edge="1">
          <mxGeometry relative="1" as="geometry">
            <mxPoint x="110" y="70" as="targetPoint" />
          </mxGeometry>
        </mxCell>
        <mxCell id="ti-f4M6J5UE3nzPMXCEx-23" value="" style="sketch=0;points=[[0,0,0],[0.25,0,0],[0.5,0,0],[0.75,0,0],[1,0,0],[0,1,0],[0.25,1,0],[0.5,1,0],[0.75,1,0],[1,1,0],[0,0.25,0],[0,0.5,0],[0,0.75,0],[1,0.25,0],[1,0.5,0],[1,0.75,0]];outlineConnect=0;fontColor=#232F3E;fillColor=#ED7100;strokeColor=#ffffff;dashed=0;verticalLabelPosition=bottom;verticalAlign=top;align=center;html=1;fontSize=12;fontStyle=0;aspect=fixed;shape=mxgraph.aws4.resourceIcon;resIcon=mxgraph.aws4.ecs;" parent="ti-f4M6J5UE3nzPMXCEx-11" vertex="1">
          <mxGeometry x="80" y="61.75" width="40" height="40" as="geometry" />
        </mxCell>
        <mxCell id="ti-f4M6J5UE3nzPMXCEx-24" value="" style="sketch=0;outlineConnect=0;fontColor=#232F3E;gradientColor=none;fillColor=#ED7100;strokeColor=none;dashed=0;verticalLabelPosition=bottom;verticalAlign=top;align=center;html=1;fontSize=12;fontStyle=0;aspect=fixed;pointerEvents=1;shape=mxgraph.aws4.ecs_task;" parent="ti-f4M6J5UE3nzPMXCEx-11" vertex="1">
          <mxGeometry x="30" y="29.5" width="23.51" height="30.5" as="geometry" />
        </mxCell>
        <mxCell id="ti-f4M6J5UE3nzPMXCEx-25" value="" style="edgeStyle=orthogonalEdgeStyle;rounded=0;orthogonalLoop=1;jettySize=auto;html=1;entryX=0;entryY=0.5;entryDx=0;entryDy=0;flowAnimation=1;fillColor=#ffe6cc;strokeColor=#d79b00;" parent="ti-f4M6J5UE3nzPMXCEx-11" source="ti-f4M6J5UE3nzPMXCEx-26" target="ti-f4M6J5UE3nzPMXCEx-13" edge="1">
          <mxGeometry relative="1" as="geometry" />
        </mxCell>
        <mxCell id="ti-f4M6J5UE3nzPMXCEx-26" value="" style="sketch=0;outlineConnect=0;fontColor=#232F3E;gradientColor=none;fillColor=#ED7100;strokeColor=none;dashed=0;verticalLabelPosition=bottom;verticalAlign=top;align=center;html=1;fontSize=12;fontStyle=0;aspect=fixed;pointerEvents=1;shape=mxgraph.aws4.ecs_service;" parent="ti-f4M6J5UE3nzPMXCEx-11" vertex="1">
          <mxGeometry x="150" y="64.75" width="28.84" height="35.5" as="geometry" />
        </mxCell>
        <mxCell id="ti-f4M6J5UE3nzPMXCEx-27" value="" style="sketch=0;outlineConnect=0;strokeColor=#6c8ebf;fillColor=#dae8fc;dashed=0;verticalLabelPosition=bottom;verticalAlign=top;align=center;html=1;fontSize=12;fontStyle=0;aspect=fixed;shape=mxgraph.aws4.resourceIcon;resIcon=mxgraph.aws4.route_table;" parent="ti-f4M6J5UE3nzPMXCEx-11" vertex="1">
          <mxGeometry x="-10" y="67.5" width="30" height="30" as="geometry" />
        </mxCell>
        <mxCell id="ti-f4M6J5UE3nzPMXCEx-28" value="DB subnet" style="points=[[0,0],[0.25,0],[0.5,0],[0.75,0],[1,0],[1,0.25],[1,0.5],[1,0.75],[1,1],[0.75,1],[0.5,1],[0.25,1],[0,1],[0,0.75],[0,0.5],[0,0.25]];outlineConnect=0;html=1;whiteSpace=wrap;fontSize=12;fontStyle=0;container=1;pointerEvents=0;collapsible=0;recursiveResize=0;shape=mxgraph.aws4.group;grIcon=mxgraph.aws4.group_security_group;grStroke=0;strokeColor=#b85450;fillColor=#f8cecc;verticalAlign=top;align=left;spacingLeft=30;dashed=0;" parent="ti-f4M6J5UE3nzPMXCEx-1" vertex="1">
          <mxGeometry x="100" y="590" width="510" height="90" as="geometry" />
        </mxCell>
        <mxCell id="ti-f4M6J5UE3nzPMXCEx-29" value="" style="sketch=0;outlineConnect=0;strokeColor=#82b366;fillColor=#d5e8d4;dashed=0;verticalLabelPosition=bottom;verticalAlign=top;align=center;html=1;fontSize=12;fontStyle=0;aspect=fixed;shape=mxgraph.aws4.resourceIcon;resIcon=mxgraph.aws4.route_table;" parent="ti-f4M6J5UE3nzPMXCEx-28" vertex="1">
          <mxGeometry x="-10" y="50" width="30" height="30" as="geometry" />
        </mxCell>
        <mxCell id="ti-f4M6J5UE3nzPMXCEx-30" value="" style="sketch=0;outlineConnect=0;fontColor=#232F3E;gradientColor=none;fillColor=#8C4FFF;strokeColor=none;dashed=0;verticalLabelPosition=bottom;verticalAlign=top;align=center;html=1;fontSize=12;fontStyle=0;aspect=fixed;pointerEvents=1;shape=mxgraph.aws4.internet_gateway;" parent="ti-f4M6J5UE3nzPMXCEx-1" vertex="1">
          <mxGeometry x="-20" y="90" width="40" height="40" as="geometry" />
        </mxCell>
        <mxCell id="ti-f4M6J5UE3nzPMXCEx-31" value="" style="outlineConnect=0;dashed=0;verticalLabelPosition=bottom;verticalAlign=top;align=center;html=1;shape=mxgraph.aws3.application_load_balancer;fillColor=#F58536;gradientColor=none;" parent="ti-f4M6J5UE3nzPMXCEx-1" vertex="1">
          <mxGeometry x="500" y="227.5" width="69" height="72" as="geometry" />
        </mxCell>
        <mxCell id="ti-f4M6J5UE3nzPMXCEx-32" value="" style="sketch=0;aspect=fixed;pointerEvents=1;shadow=0;dashed=0;html=1;strokeColor=none;labelPosition=center;verticalLabelPosition=bottom;verticalAlign=top;align=center;fillColor=#00188D;shape=mxgraph.mscae.enterprise.lock" parent="ti-f4M6J5UE3nzPMXCEx-1" vertex="1">
          <mxGeometry x="510" y="240" width="15.6" height="20" as="geometry" />
        </mxCell>
        <mxCell id="ti-f4M6J5UE3nzPMXCEx-33" style="edgeStyle=orthogonalEdgeStyle;rounded=0;orthogonalLoop=1;jettySize=auto;html=1;flowAnimation=1;fillColor=#ffe6cc;strokeColor=#d79b00;" parent="ti-f4M6J5UE3nzPMXCEx-1" source="ti-f4M6J5UE3nzPMXCEx-7" edge="1">
          <mxGeometry relative="1" as="geometry">
            <mxPoint x="200" y="440" as="targetPoint" />
            <Array as="points">
              <mxPoint x="280" y="366" />
              <mxPoint x="200" y="366" />
              <mxPoint x="200" y="440" />
            </Array>
          </mxGeometry>
        </mxCell>
        <mxCell id="ti-f4M6J5UE3nzPMXCEx-34" style="edgeStyle=orthogonalEdgeStyle;rounded=0;orthogonalLoop=1;jettySize=auto;html=1;entryX=1;entryY=0.5;entryDx=0;entryDy=0;entryPerimeter=0;flowAnimation=1;fillColor=#dae8fc;strokeColor=#000000;" parent="ti-f4M6J5UE3nzPMXCEx-1" source="ti-f4M6J5UE3nzPMXCEx-31" target="ti-f4M6J5UE3nzPMXCEx-19" edge="1">
          <mxGeometry relative="1" as="geometry">
            <Array as="points">
              <mxPoint x="535" y="395" />
              <mxPoint x="620" y="395" />
              <mxPoint x="620" y="495" />
            </Array>
          </mxGeometry>
        </mxCell>
        <mxCell id="ti-f4M6J5UE3nzPMXCEx-35" value="" style="sketch=0;outlineConnect=0;strokeColor=#d79b00;fillColor=#ffe6cc;dashed=0;verticalLabelPosition=bottom;verticalAlign=top;align=center;html=1;fontSize=12;fontStyle=0;aspect=fixed;shape=mxgraph.aws4.resourceIcon;resIcon=mxgraph.aws4.route_table;" parent="ti-f4M6J5UE3nzPMXCEx-1" vertex="1">
          <mxGeometry x="90" y="230" width="30" height="30" as="geometry" />
        </mxCell>
        <mxCell id="ti-f4M6J5UE3nzPMXCEx-36" style="edgeStyle=orthogonalEdgeStyle;rounded=0;orthogonalLoop=1;jettySize=auto;html=1;flowAnimation=1;fillColor=#e1d5e7;strokeColor=#9673a6;" parent="ti-f4M6J5UE3nzPMXCEx-1" source="ti-f4M6J5UE3nzPMXCEx-30" edge="1">
          <mxGeometry relative="1" as="geometry">
            <mxPoint x="90" y="240" as="targetPoint" />
            <Array as="points">
              <mxPoint x="30" y="110" />
              <mxPoint x="30" y="240" />
            </Array>
          </mxGeometry>
        </mxCell>
        <mxCell id="ti-f4M6J5UE3nzPMXCEx-37" style="edgeStyle=orthogonalEdgeStyle;rounded=0;orthogonalLoop=1;jettySize=auto;html=1;flowAnimation=1;fillColor=#e1d5e7;strokeColor=#9673a6;" parent="ti-f4M6J5UE3nzPMXCEx-1" source="ti-f4M6J5UE3nzPMXCEx-10" target="ti-f4M6J5UE3nzPMXCEx-29" edge="1">
          <mxGeometry relative="1" as="geometry">
            <Array as="points">
              <mxPoint x="70" y="270" />
              <mxPoint x="70" y="655" />
            </Array>
          </mxGeometry>
        </mxCell>
        <mxCell id="ti-f4M6J5UE3nzPMXCEx-38" value="" style="endArrow=classic;html=1;rounded=0;flowAnimation=1;fillColor=#e1d5e7;strokeColor=#9673a6;" parent="ti-f4M6J5UE3nzPMXCEx-1" target="ti-f4M6J5UE3nzPMXCEx-27" edge="1">
          <mxGeometry width="50" height="50" relative="1" as="geometry">
            <mxPoint x="70" y="493" as="sourcePoint" />
            <mxPoint x="90" y="491" as="targetPoint" />
          </mxGeometry>
        </mxCell>
        <mxCell id="ti-f4M6J5UE3nzPMXCEx-43" value="&lt;font color=&quot;#ff8000&quot;&gt;instana.konkas.tech&lt;/font&gt;" style="sketch=0;pointerEvents=1;shadow=0;dashed=0;html=1;strokeColor=#d79b00;fillColor=#ffe6cc;aspect=fixed;labelPosition=center;verticalLabelPosition=bottom;verticalAlign=top;align=center;outlineConnect=0;shape=mxgraph.vvd.web_browser;" parent="1" vertex="1">
          <mxGeometry x="-40" y="-106" width="150" height="106.5" as="geometry" />
        </mxCell>
        <mxCell id="ti-f4M6J5UE3nzPMXCEx-44" style="edgeStyle=orthogonalEdgeStyle;rounded=0;orthogonalLoop=1;jettySize=auto;html=1;fillColor=#e1d5e7;strokeColor=#9673a6;flowAnimation=1;" parent="1" source="ti-f4M6J5UE3nzPMXCEx-45" target="ti-f4M6J5UE3nzPMXCEx-30" edge="1">
          <mxGeometry relative="1" as="geometry">
            <Array as="points">
              <mxPoint x="370" y="290" />
              <mxPoint x="-10" y="290" />
              <mxPoint x="-10" y="420" />
            </Array>
          </mxGeometry>
        </mxCell>
        <mxCell id="ti-f4M6J5UE3nzPMXCEx-45" value="" style="outlineConnect=0;dashed=0;verticalLabelPosition=bottom;verticalAlign=top;align=center;html=1;shape=mxgraph.aws3.internet_gateway;fillColor=#F58534;gradientColor=none;" parent="1" vertex="1">
          <mxGeometry x="340" y="-90" width="69" height="72" as="geometry" />
        </mxCell>
        <mxCell id="ti-f4M6J5UE3nzPMXCEx-46" style="edgeStyle=orthogonalEdgeStyle;rounded=0;orthogonalLoop=1;jettySize=auto;html=1;entryX=0;entryY=0.5;entryDx=0;entryDy=0;entryPerimeter=0;flowAnimation=1;fillColor=#dae8fc;strokeColor=#000000;" parent="1" source="ti-f4M6J5UE3nzPMXCEx-43" target="ti-f4M6J5UE3nzPMXCEx-45" edge="1">
          <mxGeometry relative="1" as="geometry" />
        </mxCell>
        <mxCell id="ti-f4M6J5UE3nzPMXCEx-48" value="" style="outlineConnect=0;dashed=0;verticalLabelPosition=bottom;verticalAlign=top;align=center;html=1;shape=mxgraph.aws3.cloudwatch;fillColor=#759C3E;gradientColor=none;" parent="1" vertex="1">
          <mxGeometry x="801.25" y="780" width="82.5" height="93" as="geometry" />
        </mxCell>
        <mxCell id="ti-f4M6J5UE3nzPMXCEx-49" style="edgeStyle=orthogonalEdgeStyle;rounded=0;orthogonalLoop=1;jettySize=auto;html=1;exitX=0.5;exitY=1;exitDx=0;exitDy=0;flowAnimation=1;fillColor=#d5e8d4;strokeColor=#577844;" parent="1" source="ti-f4M6J5UE3nzPMXCEx-13" target="ti-f4M6J5UE3nzPMXCEx-48" edge="1">
          <mxGeometry relative="1" as="geometry">
            <mxPoint x="474" y="840" as="sourcePoint" />
            <Array as="points">
              <mxPoint x="474" y="890" />
              <mxPoint x="841" y="890" />
            </Array>
          </mxGeometry>
        </mxCell>
        <mxCell id="ti-f4M6J5UE3nzPMXCEx-51" value="Amazon ECR" style="sketch=0;outlineConnect=0;strokeColor=#d79b00;fillColor=#ffe6cc;dashed=0;verticalLabelPosition=middle;verticalAlign=bottom;align=center;html=1;whiteSpace=wrap;fontSize=10;fontStyle=1;spacing=3;shape=mxgraph.aws4.productIcon;prIcon=mxgraph.aws4.ecr;" parent="1" vertex="1">
          <mxGeometry x="803.75" y="650" width="80" height="100" as="geometry" />
        </mxCell>
        <mxCell id="ti-f4M6J5UE3nzPMXCEx-52" value="" style="endArrow=classic;html=1;rounded=0;exitX=0.992;exitY=0.546;exitDx=0;exitDy=0;exitPerimeter=0;fillColor=#d5e8d4;strokeColor=#668C4F;flowAnimation=1;" parent="1" source="ti-f4M6J5UE3nzPMXCEx-2" edge="1">
          <mxGeometry width="50" height="50" relative="1" as="geometry">
            <mxPoint x="550" y="530" as="sourcePoint" />
            <mxPoint x="800" y="700" as="targetPoint" />
            <Array as="points">
              <mxPoint x="340" y="700" />
              <mxPoint x="520" y="700" />
            </Array>
          </mxGeometry>
        </mxCell>
        <mxCell id="pMOi_XF-8UtQK-ovZ_T8-1" value="AWS Account" style="points=[[0,0],[0.25,0],[0.5,0],[0.75,0],[1,0],[1,0.25],[1,0.5],[1,0.75],[1,1],[0.75,1],[0.5,1],[0.25,1],[0,1],[0,0.75],[0,0.5],[0,0.25]];outlineConnect=0;gradientColor=none;html=1;whiteSpace=wrap;fontSize=12;fontStyle=0;container=1;pointerEvents=0;collapsible=0;recursiveResize=0;shape=mxgraph.aws4.group;grIcon=mxgraph.aws4.group_account;strokeColor=#CD2264;fillColor=none;verticalAlign=top;align=left;spacingLeft=30;fontColor=#CD2264;dashed=0;" vertex="1" parent="1">
          <mxGeometry x="-110" y="80" width="1030" height="1070" as="geometry" />
        </mxCell>
        <mxCell id="pMOi_XF-8UtQK-ovZ_T8-2" value="" style="sketch=0;outlineConnect=0;fontColor=#232F3E;gradientColor=none;fillColor=#DD344C;strokeColor=none;dashed=0;verticalLabelPosition=bottom;verticalAlign=top;align=center;html=1;fontSize=12;fontStyle=0;aspect=fixed;pointerEvents=1;shape=mxgraph.aws4.role;" vertex="1" parent="pMOi_XF-8UtQK-ovZ_T8-1">
          <mxGeometry x="330" y="621.75" width="35.45" height="20" as="geometry" />
        </mxCell>
        <mxCell id="pMOi_XF-8UtQK-ovZ_T8-4" value="" style="outlineConnect=0;dashed=0;verticalLabelPosition=bottom;verticalAlign=top;align=center;html=1;shape=mxgraph.aws3.iam;fillColor=#d5e8d4;strokeColor=#82b366;" vertex="1" parent="pMOi_XF-8UtQK-ovZ_T8-1">
          <mxGeometry x="931.5" y="370" width="42" height="81" as="geometry" />
        </mxCell>
        <mxCell id="ti-f4M6J5UE3nzPMXCEx-42" value="" style="outlineConnect=0;dashed=0;verticalLabelPosition=bottom;verticalAlign=top;align=center;html=1;shape=mxgraph.aws3.route_53;fillColor=#F58536;gradientColor=none;" parent="pMOi_XF-8UtQK-ovZ_T8-1" vertex="1">
          <mxGeometry x="260" y="28.25" width="70.5" height="80" as="geometry" />
        </mxCell>
        <mxCell id="pMOi_XF-8UtQK-ovZ_T8-9" style="edgeStyle=orthogonalEdgeStyle;rounded=0;orthogonalLoop=1;jettySize=auto;html=1;fillColor=#e1d5e7;strokeColor=#9673a6;flowAnimation=1;" edge="1" parent="pMOi_XF-8UtQK-ovZ_T8-1" source="ti-f4M6J5UE3nzPMXCEx-40">
          <mxGeometry relative="1" as="geometry">
            <mxPoint x="138.25" y="210" as="targetPoint" />
          </mxGeometry>
        </mxCell>
        <mxCell id="ti-f4M6J5UE3nzPMXCEx-40" value="" style="outlineConnect=0;dashed=0;verticalLabelPosition=bottom;verticalAlign=top;align=center;html=1;shape=mxgraph.aws3.cloudfront;fillColor=#F58536;gradientColor=none;" parent="pMOi_XF-8UtQK-ovZ_T8-1" vertex="1">
          <mxGeometry x="100" y="40" width="76.5" height="90" as="geometry" />
        </mxCell>
        <mxCell id="ti-f4M6J5UE3nzPMXCEx-50" value="" style="outlineConnect=0;dashed=0;verticalLabelPosition=bottom;verticalAlign=top;align=center;html=1;shape=mxgraph.aws3.certificate_manager_2;fillColor=#759C3E;gradientColor=none;" parent="pMOi_XF-8UtQK-ovZ_T8-1" vertex="1">
          <mxGeometry x="268.5" y="78.25" width="53.5" height="51.75" as="geometry" />
        </mxCell>
        <mxCell id="pMOi_XF-8UtQK-ovZ_T8-5" value="" style="outlineConnect=0;dashed=0;verticalLabelPosition=bottom;verticalAlign=top;align=center;html=1;shape=mxgraph.aws3.certificate_manager_2;fillColor=#759C3E;gradientColor=none;" vertex="1" parent="pMOi_XF-8UtQK-ovZ_T8-1">
          <mxGeometry x="121.5" y="88.25" width="53.5" height="51.75" as="geometry" />
        </mxCell>
        <mxCell id="pMOi_XF-8UtQK-ovZ_T8-8" style="edgeStyle=orthogonalEdgeStyle;rounded=0;orthogonalLoop=1;jettySize=auto;html=1;entryX=1.011;entryY=0.427;entryDx=0;entryDy=0;entryPerimeter=0;flowAnimation=1;fillColor=#e1d5e7;strokeColor=#9673a6;" edge="1" parent="pMOi_XF-8UtQK-ovZ_T8-1" source="ti-f4M6J5UE3nzPMXCEx-42" target="ti-f4M6J5UE3nzPMXCEx-40">
          <mxGeometry relative="1" as="geometry" />
        </mxCell>
        <mxCell id="pMOi_XF-8UtQK-ovZ_T8-6" value="" style="endArrow=classic;html=1;rounded=0;entryX=1.04;entryY=0.589;entryDx=0;entryDy=0;entryPerimeter=0;flowAnimation=1;fillColor=#e1d5e7;strokeColor=#9673a6;" edge="1" parent="1" target="ti-f4M6J5UE3nzPMXCEx-42">
          <mxGeometry width="50" height="50" relative="1" as="geometry">
            <mxPoint x="370" y="155" as="sourcePoint" />
            <mxPoint x="430" y="160" as="targetPoint" />
          </mxGeometry>
        </mxCell>
      </root>
    </mxGraphModel>
  </diagram>
</mxfile>
